# File created by Blade
# Date/Time:  Tue Apr 07 21:32:54 2015
#---------------------------------------------------------
:version 1.10
:name HOM
:units
  mass 1.0
  length 1.000000
  angle deg
:documentation
     Acclaim Skeleton File
:root
   axis xyz
   order TX TY TZ RX RY RZ
   position 0.000000 0.000000 0.000000
   orientation 0 0 0
:bonedata
   begin
      id 1
      name Spine_dum
      direction 0.000000 1.000000 0.000000
      length 4.885285
      axis 0.0 0.0 0.0 xyz
   end
   begin
      id 2
      name LeftUpLeg_dum
      direction 1.000000 0.000000 0.000000
      length 2.672193
      axis 0.0 0.0 0.0 xyz
   end
   begin
      id 3
      name RightUpLeg_dum
      direction -1.000000 0.000000 0.000000
      length 2.672193
      axis 0.0 0.0 0.0 xyz
   end
   begin
      id 4
      name Spine
      direction 0.000000 1.000000 0.000000
      length 0.000000
      axis 0.0 0.0 0.0 xyz
      dof rx ry rz
   end
   begin
      id 5
      name Spine_dum1
      direction 0.000000 1.000000 0.000000
      length 16.494159
      axis 0.0 0.0 0.0 xyz
   end
   begin
      id 6
      name Spine_dum2
      direction 0.000000 1.000000 0.000000
      length 10.663448
      axis 0.0 0.0 0.0 xyz
   end
   begin
      id 7
      name Spine_dum3
      direction 0.000000 1.000000 0.000000
      length 10.663448
      axis 0.0 0.0 0.0 xyz
   end
   begin
      id 8
      name Head
      direction 0.000000 1.000000 0.000000
      length 4.527550
      axis 0.0 0.0 0.0 xyz
      dof rx ry rz
   end
   begin
      id 9
      name LeftShoulder
      direction 1.000000 0.000000 0.000000
      length 7.531907
      axis 0.0 0.0 -90.0 xyz
      dof rx ry rz
   end
   begin
      id 10
      name LeftArm
      direction 1.000000 0.000000 0.000000
      length 10.229199
      axis 0.0 0.0 -90.0 xyz
      dof rx ry rz
   end
   begin
      id 11
      name LeftForeArm
      direction 1.000000 0.000000 0.000000
      length 8.673495
      axis 0.0 0.0 -90.0 xyz
      dof ry rz rx
   end
   begin
      id 12
      name LeftHand
      direction 0.000000 0.000000 0.000000
      length 0.000000
      axis 0.0 0.0 -90.0 xyz
      dof rx ry rz
   end
   begin
      id 13
      name LeftHand_dum1
      direction 0.000000 0.000000 0.000000
      length 0.000000
      axis 0.0 0.0 -90.0 xyz
   end
   begin
      id 14
      name LeftHand_dum2
      direction 1.000000 0.000000 0.000000
      length 3.937000
      axis 0.0 0.0 -90.0 xyz
   end
   begin
      id 15
      name LeftHandThumb1
      direction 0.000000 0.000000 1.000000
      length 3.937000
      axis 0.0 0.0 -90.0 xyz
      dof rx rz ry
   end
   begin
      id 16
      name RightShoulder
      direction -1.000000 0.000000 0.000000
      length 7.531907
      axis 0.0 0.0 90.0 xyz
      dof rx ry rz
   end
   begin
      id 17
      name RightArm
      direction -1.000000 0.000000 0.000000
      length 10.229199
      axis 0.0 0.0 90.0 xyz
      dof rx ry rz
   end
   begin
      id 18
      name RightForeArm
      direction -1.000000 0.000000 0.000000
      length 8.673495
      axis 0.0 0.0 90.0 xyz
      dof ry rz rx
   end
   begin
      id 19
      name RightHand
      direction 0.000000 0.000000 0.000000
      length 0.000000
      axis 0.0 0.0 90.0 xyz
      dof rx ry rz
   end
   begin
      id 20
      name RightHand_dum1
      direction 0.000000 0.000000 0.000000
      length 0.000000
      axis 0.0 0.0 90.0 xyz
   end
   begin
      id 21
      name RightHand_dum2
      direction -1.000000 0.000000 0.000000
      length 3.937000
      axis 0.0 0.0 90.0 xyz
   end
   begin
      id 22
      name RightHandThumb1
      direction 0.000000 0.000000 1.000000
      length 3.937000
      axis 0.0 0.0 90.0 xyz
      dof rx rz ry
   end
   begin
      id 23
      name LeftUpLeg
      direction 0.000000 -1.000000 0.000000
      length 16.263388
      axis 0.0 0.0 0.0 xyz
      dof rx ry rz
   end
   begin
      id 24
      name LeftLeg
      direction 0.000000 -1.000000 0.000000
      length 14.328163
      axis 0.0 0.0 0.0 xyz
      dof rx ry rz
   end
   begin
      id 25
      name LeftFoot
      direction 0.000000 -0.258819 0.965926
      length 5.031290
      axis 15.0 0.0 0.0 xyz
      dof rx ry rz
   end
   begin
      id 26
      name LeftToeBase
      direction 0.000000 0.000000 1.000000
      length 2.952750
      axis 0.0 0.0 0.0 xyz
      dof rx ry rz
   end
   begin
      id 27
      name RightUpLeg
      direction 0.000000 -1.000000 0.000000
      length 16.263388
      axis 0.0 0.0 0.0 xyz
      dof rx ry rz
   end
   begin
      id 28
      name RightLeg
      direction 0.000000 -1.000000 0.000000
      length 14.328163
      axis 0.0 0.0 0.0 xyz
      dof rx ry rz
   end
   begin
      id 29
      name RightFoot
      direction 0.000000 -0.258819 0.965926
      length 5.031290
      axis 15.0 0.0 0.0 xyz
      dof rx ry rz
   end
   begin
      id 30
      name RightToeBase
      direction 0.000000 0.000000 1.000000
      length 2.952750
      axis 0.0 0.0 0.0 xyz
      dof rx ry rz
   end
:hierarchy
   begin
      root Spine_dum LeftUpLeg_dum RightUpLeg_dum
      Spine_dum Spine
      LeftUpLeg_dum LeftUpLeg
      RightUpLeg_dum RightUpLeg
      Spine Spine_dum1 Spine_dum2 Spine_dum3
      Spine_dum1 Head
      Spine_dum2 LeftShoulder
      Spine_dum3 RightShoulder
      LeftShoulder LeftArm
      LeftArm LeftForeArm
      LeftForeArm LeftHand
      LeftHand LeftHand_dum1 LeftHand_dum2
      LeftHand_dum1 LeftHandThumb1
      RightShoulder RightArm
      RightArm RightForeArm
      RightForeArm RightHand
      RightHand RightHand_dum1 RightHand_dum2
      RightHand_dum1 RightHandThumb1
      LeftUpLeg LeftLeg
      LeftLeg LeftFoot
      LeftFoot LeftToeBase
      RightUpLeg RightLeg
      RightLeg RightFoot
      RightFoot RightToeBase
   end

# File created by Blade
# Date/Time:  Tue Apr 07 21:33:03 2015
# Frame Rate: 120.000 fps
#------------------------------------------------------
:FULLY-SPECIFIED
:DEGREES
198
root 5.102537 32.292451 -2.087339 14.365176 20.066259 3.964564
Spine -3.205065 -0.502832 -6.343569
Head 27.439876 49.881731 -7.726805
LeftShoulder -28.567702 44.887386 -6.642618
LeftArm 49.751850 -2.634892 -82.899787
LeftForeArm -9.784287 -0.000000 5.706054
LeftHand 3.215030 -0.000000 -16.260543
LeftHandThumb1 -26.253704 0.000000 33.147579
RightShoulder -5.422449 -11.071557 -21.537746
RightArm 13.922053 -19.116032 84.935998
RightForeArm 7.531816 -0.000000 27.216041
RightHand 3.642158 0.000000 13.760018
RightHandThumb1 -24.326973 -0.000000 -32.862282
LeftUpLeg -18.689542 -12.355314 21.693301
LeftLeg 11.646851 -0.000000 -0.000000
LeftFoot 8.821224 13.424935 -11.498403
LeftToeBase -15.984459 -0.000000 0.000000
RightUpLeg -18.701992 -4.993887 -12.772608
RightLeg 22.341851 -0.000000 -0.000000
RightFoot -11.870617 -23.952226 12.812360
RightToeBase -6.387671 -0.000000 0.000000
199
root 5.351967 32.224801 -2.144531 14.359597 19.812609 3.815026
Spine -3.288988 -0.533115 -6.199126
Head 27.290712 49.791835 -7.702891
LeftShoulder -28.548936 44.906677 -6.547319
LeftArm 49.832287 -2.611507 -82.874551
LeftForeArm -9.514780 0.000000 5.739936
LeftHand 3.198851 0.000000 -16.026566
LeftHandThumb1 -26.253704 0.000000 33.147579
RightShoulder -5.458359 -11.019689 -21.518793
RightArm 13.779288 -19.031087 85.009053
RightForeArm 7.454288 -0.000000 27.413932
RightHand 3.667517 0.000000 13.361252
RightHandThumb1 -24.326973 -0.000000 -32.862282
LeftUpLeg -18.700250 -12.768174 22.096846
LeftLeg 11.697506 -0.000000 -0.000000
LeftFoot 8.401686 12.765598 -12.695190
LeftToeBase -16.183187 -0.000000 0.000000
RightUpLeg -19.013674 -5.077511 -13.163608
RightLeg 22.835920 -0.000000 -0.000000
RightFoot -11.764827 -23.552620 13.087118
RightToeBase -6.633279 -0.000000 0.000000
200
root 5.609289 32.156775 -2.207764 14.385008 19.548343 3.679746
Spine -3.399383 -0.597338 -6.056386
Head 27.171218 49.748032 -7.636329
LeftShoulder -28.523666 44.900383 -6.431160
LeftArm 49.878694 -2.501072 -82.761617
LeftForeArm -9.348508 -0.000000 5.756876
LeftHand 3.160042 0.000000 -15.740922
LeftHandThumb1 -26.253704 0.000000 33.147579
RightShoulder -5.433211 -10.999254 -21.491140
RightArm 13.654842 -18.802907 85.110850
RightForeArm 7.442743 -0.000000 27.563280
RightHand 3.704206 -0.000000 13.243325
RightHandThumb1 -24.326973 -0.000000 -32.862282
LeftUpLeg -18.736029 -13.231062 22.460506
LeftLeg 11.735237 -0.000000 -0.000000
LeftFoot 8.175900 11.949457 -14.105677
LeftToeBase -16.717134 -0.000000 0.000000
RightUpLeg -19.322943 -5.088283 -13.599772
RightLeg 23.243172 -0.000000 -0.000000
RightFoot -11.342516 -23.357583 12.909863
RightToeBase -7.515520 -0.000000 0.000000
201
root 5.871756 32.085257 -2.269162 14.388543 19.334614 3.457571
Spine -3.523169 -0.663824 -5.802237
Head 27.034413 49.653178 -7.575901
LeftShoulder -28.426085 44.952448 -6.271425
LeftArm 49.907381 -2.411036 -82.705629
LeftForeArm -9.161435 -0.000000 5.870737
LeftHand 3.165705 -0.000000 -15.556508
LeftHandThumb1 -26.253704 0.000000 33.147579
RightShoulder -5.486301 -11.052769 -21.447924
RightArm 13.610798 -18.616431 85.158288
RightForeArm 7.400863 -0.000000 27.715028
RightHand 3.601229 -0.000000 12.919248
RightHandThumb1 -24.326973 -0.000000 -32.862282
LeftUpLeg -18.821460 -13.637908 22.873246
LeftLeg 11.860717 -0.000000 -0.000000
LeftFoot 7.965914 10.877731 -16.023673
LeftToeBase -17.556152 -0.000000 0.000000
RightUpLeg -19.554184 -5.109376 -13.968919
RightLeg 23.537670 -0.000000 -0.000000
RightFoot -11.190786 -22.978426 12.971076
RightToeBase -7.354310 -0.000000 0.000000
202
root 6.146088 32.012557 -2.339049 14.429073 19.054123 3.265558
Spine -3.671946 -0.701333 -5.580244
Head 26.905794 49.535995 -7.470139
LeftShoulder -28.349426 44.984998 -6.092645
LeftArm 49.928137 -2.358017 -82.760144
LeftForeArm -8.886270 -0.000000 5.978679
LeftHand 3.320816 -0.000000 -15.202714
LeftHandThumb1 -26.253704 0.000000 33.147579
RightShoulder -5.486525 -11.090042 -21.409389
RightArm 13.527541 -18.402437 85.193242
RightForeArm 7.404590 -0.000000 27.858242
RightHand 3.659365 -0.000000 12.553854
RightHandThumb1 -24.326973 -0.000000 -32.862282
LeftUpLeg -18.929543 -14.116894 23.230665
LeftLeg 12.042704 -0.000000 -0.000000
LeftFoot 7.633470 9.819538 -18.597620
LeftToeBase -18.233741 -0.000000 0.000000
RightUpLeg -19.793755 -5.053932 -14.415407
RightLeg 23.743722 -0.000000 -0.000000
RightFoot -10.989903 -22.599504 13.285898
RightToeBase -7.603435 -0.000000 0.000000
203
root 6.436302 31.941051 -2.412391 14.462585 18.782408 3.124542
Spine -3.785670 -0.768017 -5.379037
Head 26.731136 49.383595 -7.412613
LeftShoulder -28.273465 45.009413 -5.936096
LeftArm 49.912566 -2.203000 -82.706231
LeftForeArm -8.756615 -0.000000 6.197114
LeftHand 3.198909 -0.000000 -15.066731
LeftHandThumb1 -26.253704 0.000000 33.147579
RightShoulder -5.494825 -11.088373 -21.352287
RightArm 13.430293 -18.024289 85.270307
RightForeArm 7.283149 -0.000000 27.879010
RightHand 3.808981 -0.000000 12.493058
RightHandThumb1 -24.326973 -0.000000 -32.862282
LeftUpLeg -19.011309 -14.682787 23.458987
LeftLeg 12.263678 -0.000000 -0.000000
LeftFoot 6.921898 8.948019 -21.352733
LeftToeBase -19.111777 -0.000000 0.000000
RightUpLeg -19.948731 -5.051632 -14.939080
RightLeg 23.822749 -0.000000 -0.000000
RightFoot -10.698098 -22.154618 13.314697
RightToeBase -7.454338 -0.000000 0.000000
204
root 6.732027 31.867342 -2.494135 14.522511 18.410969 2.960526
Spine -3.924884 -0.712810 -5.187932
Head 26.530894 49.147675 -7.297423
LeftShoulder -28.104394 45.013108 -5.644285
LeftArm 49.875067 -2.054020 -82.746015
LeftForeArm -8.449557 -0.000000 6.423134
LeftHand 3.070547 -0.000000 -14.978228
LeftHandThumb1 -26.253704 0.000000 33.147579
RightShoulder -5.537173 -11.152768 -21.256327
RightArm 13.366183 -17.589605 85.310210
RightForeArm 7.052178 -0.000000 27.987544
RightHand 3.849857 -0.000000 12.259803
RightHandThumb1 -24.326973 -0.000000 -32.862282
LeftUpLeg -19.185285 -14.871741 23.522944
LeftLeg 12.787802 -0.000000 -0.000000
LeftFoot 5.954011 8.090832 -23.297300
LeftToeBase -20.064806 -0.000000 0.000000
RightUpLeg -20.137803 -4.925929 -15.480262
RightLeg 23.814616 -0.000000 -0.000000
RightFoot -10.379765 -21.753779 13.484716
RightToeBase -7.372643 -0.000000 0.000000
205
root 7.038646 31.793980 -2.580562 14.573990 18.007056 2.796981
Spine -4.043963 -0.660664 -4.983156
Head 26.266118 48.928898 -7.225177
LeftShoulder -28.040247 45.064304 -5.443055
LeftArm 50.053284 -1.720297 -82.594706
LeftForeArm -8.062613 -0.000000 6.354910
LeftHand 3.232919 -0.000000 -15.363155
LeftHandThumb1 -26.253704 0.000000 33.147579
RightShoulder -5.540468 -11.127713 -21.188885
RightArm 13.151432 -17.158348 85.360795
RightForeArm 6.942546 -0.000000 28.210657
RightHand 3.881349 -0.000000 12.050434
RightHandThumb1 -24.326973 -0.000000 -32.862282
LeftUpLeg -19.306582 -15.145482 23.487598
LeftLeg 13.295044 -0.000000 -0.000000
LeftFoot 4.732675 7.458338 -24.890672
LeftToeBase -20.924839 -0.000000 0.000000
RightUpLeg -20.296711 -4.751247 -16.061880
RightLeg 23.749560 -0.000000 -0.000000
RightFoot -9.990264 -21.348633 13.654227
RightToeBase -7.446979 -0.000000 0.000000
206
root 7.356355 31.724969 -2.679164 14.671977 17.639881 2.689981
Spine -4.154978 -0.624924 -4.814220
Head 25.935395 48.631256 -7.165336
LeftShoulder -27.889327 45.102649 -5.187102
LeftArm 50.158187 -1.384303 -82.465552
LeftForeArm -7.872374 -0.000000 6.485920
LeftHand 3.259692 -0.000000 -15.028270
LeftHandThumb1 -26.253704 0.000000 33.147579
RightShoulder -5.589937 -11.073822 -21.065581
RightArm 12.955386 -16.741869 85.349246
RightForeArm 6.869508 -0.000000 28.325920
RightHand 4.134368 -0.000000 12.101908
RightHandThumb1 -24.326973 -0.000000 -32.862282
LeftUpLeg -19.525976 -15.635173 23.401460
LeftLeg 13.853447 -0.000000 -0.000000
LeftFoot 3.418409 6.987773 -26.431405
LeftToeBase -22.036691 -0.000000 0.000000
RightUpLeg -20.443930 -4.662375 -16.688528
RightLeg 23.556353 -0.000000 -0.000000
RightFoot -9.528383 -21.055090 13.911355
RightToeBase -7.570986 -0.000000 0.000000
207
root 7.686014 31.657772 -2.772533 14.810578 17.155796 2.577566
Spine -4.362851 -0.488233 -4.667340
Head 25.672271 48.281392 -7.024645
LeftShoulder -27.724015 45.175681 -4.902437
LeftArm 50.224977 -1.001763 -82.327839
LeftForeArm -7.800595 -0.000000 6.666787
LeftHand 3.340905 -0.000000 -14.751269
LeftHandThumb1 -26.253704 0.000000 33.147579
RightShoulder -5.639298 -11.042588 -20.902025
RightArm 12.715887 -16.378057 85.269781
RightForeArm 6.804113 -0.000000 28.541772
RightHand 4.150861 0.000000 11.914250
RightHandThumb1 -24.326973 -0.000000 -32.862282
LeftUpLeg -19.691871 -16.033135 23.203014
LeftLeg 14.413675 -0.000000 -0.000000
LeftFoot 1.781848 6.672918 -27.606317
LeftToeBase -22.620957 -0.000000 0.000000
RightUpLeg -20.608509 -4.581207 -17.320184
RightLeg 23.226886 -0.000000 -0.000000
RightFoot -8.978872 -20.701615 14.097538
RightToeBase -7.710849 -0.000000 0.000000
208
root 8.029348 31.595370 -2.877182 14.955858 16.709554 2.541081
Spine -4.509330 -0.424981 -4.549621
Head 25.297734 47.926960 -6.990230
LeftShoulder -27.556428 45.209720 -4.635401
LeftArm 50.303404 -0.546886 -82.094808
LeftForeArm -7.517359 -0.000000 6.833001
LeftHand 3.516696 -0.000000 -14.383464
LeftHandThumb1 -26.253704 0.000000 33.147579
RightShoulder -5.697075 -11.128598 -20.736175
RightArm 12.584668 -15.915293 85.190445
RightForeArm 6.521308 0.000000 28.834733
RightHand 4.068985 -0.000000 11.008973
RightHandThumb1 -24.326973 -0.000000 -32.862282
LeftUpLeg -19.888090 -16.588023 22.876823
LeftLeg 15.012023 -0.000000 -0.000000
LeftFoot -0.053202 6.440111 -28.629538
LeftToeBase -22.007998 -0.000000 0.000000
RightUpLeg -20.729112 -4.620032 -18.010580
RightLeg 22.823274 -0.000000 -0.000000
RightFoot -8.365487 -20.383810 14.342467
RightToeBase -7.859228 -0.000000 0.000000
